<svg xmlns="http://www.w3.org/2000/svg" width="61.47" height="22.18" viewBox="0 0 61.47 22.18">
  <g>
    <path d="M0,21.81V17H4.86v4.8Z"/>
    <path d="M6,.37h6l2.43,5.15c.21.43.42.91.63,1.42s.38.93.5,1.22l.16.45h.06Q16.34,7,17,5.52L19.43.37h6L18.32,13v8.79H13.07V13Z" fill="#f5112c"/>
    <path d="M28.85,21.81V.37H42.29V4.86H34.1v3.9h6.53v4.5H34.1v4h8.61v4.5Z" fill="#f5112c"/>
    <path d="M46.08,19.13l2.77-4a10.3,10.3,0,0,0,2.42,1.57,6.42,6.42,0,0,0,2.73.66A2.74,2.74,0,0,0,55.64,17a1.3,1.3,0,0,0,.58-1.09,1.38,1.38,0,0,0-.32-.9,3,3,0,0,0-.87-.73,13.68,13.68,0,0,0-1.27-.63l-1.5-.66c-.52-.22-1-.47-1.57-.73a9.29,9.29,0,0,1-1.5-.92,7.87,7.87,0,0,1-1.25-1.19,4.77,4.77,0,0,1-.87-1.55,5.77,5.77,0,0,1-.32-2,5.89,5.89,0,0,1,2.18-4.75A8.46,8.46,0,0,1,54.52,0a10.72,10.72,0,0,1,3.6.61,9.37,9.37,0,0,1,3.1,1.81L59,6.7a8,8,0,0,0-2.23-1.36,6.49,6.49,0,0,0-2.51-.54,2.83,2.83,0,0,0-1.71.42A1.32,1.32,0,0,0,52,6.34a1.5,1.5,0,0,0,.41,1,3.32,3.32,0,0,0,1.08.77c.44.21,1,.44,1.52.68s1.15.49,1.74.72a9.89,9.89,0,0,1,1.73.91A9.2,9.2,0,0,1,60,11.63a4.64,4.64,0,0,1,1.08,1.65,5.89,5.89,0,0,1,.41,2.22A6.55,6.55,0,0,1,61,18.07a6.23,6.23,0,0,1-1.44,2.12,6.35,6.35,0,0,1-2.4,1.45,9.33,9.33,0,0,1-3.26.54,11.7,11.7,0,0,1-4.23-.79A9.85,9.85,0,0,1,46.08,19.13Z" fill="#f5112c"/>
  </g>
</svg>
