<svg xmlns="http://www.w3.org/2000/svg" xmlns:xlink="http://www.w3.org/1999/xlink"><symbol id="arrow-right" viewBox="0 0 330 330">
  <path d="M15,180h263.787l-49.394,49.394c-5.858,5.857-5.858,15.355,0,21.213C232.322,253.535,236.161,255,240,255
    s7.678-1.465,10.606-4.394l75-75c5.858-5.857,5.858-15.355,0-21.213l-75-75c-5.857-5.857-15.355-5.857-21.213,0
    c-5.858,5.857-5.858,15.355,0,21.213L278.787,150H15c-8.284,0-15,6.716-15,15S6.716,180,15,180z"/>
</symbol><symbol id="circle" viewBox="0 0 85 85">
  <path d="M326.5,361A42.5,42.5,0,1,1,284,403.5,42.5,42.5,0,0,1,326.5,361Zm0,15A27.5,27.5,0,1,1,299,403.5,27.5,27.5,0,0,1,326.5,376Z" fill="#2429ff" fill-rule="evenodd" transform="translate(-284 -361)"/>
</symbol><symbol id="round" viewBox="0 0 23 23">
	<circle cx="11.5" cy="11.5" r="11.5" fill="#2429ff"/>
</symbol><symbol id="wave" viewBox="0 0 145 19">
  <path d="M125.28,19c-5.22,0-7.88-3.76-10.22-7.08-2.12-3-3.8-5.37-7.37-5.37s-5.25,2.37-7.37,5.37C98,15.24,95.31,19,90.09,19s-7.88-3.76-10.23-7.08c-2.11-3-3.79-5.37-7.36-5.37s-5.25,2.37-7.37,5.37C62.78,15.24,60.12,19,54.9,19S47,15.24,44.68,11.92c-2.12-3-3.8-5.37-7.37-5.37s-5.25,2.37-7.37,5.37c-2.35,3.32-5,7.08-10.23,7.08s-7.88-3.76-10.22-7.08c-2.12-3-3.8-5.37-7.37-5.37C1,6.55,0,5.08,0,3.27S1,0,2.12,0C7.34,0,10,3.76,12.34,7.08c2.12,3,3.8,5.37,7.37,5.37S25,10.08,27.08,7.09C29.43,3.76,32.09,0,37.31,0s7.88,3.76,10.22,7.09c2.12,3,3.8,5.36,7.37,5.36s5.25-2.37,7.37-5.36C64.62,3.76,67.28,0,72.5,0s7.88,3.76,10.22,7.09c2.12,3,3.8,5.36,7.37,5.36s5.25-2.37,7.37-5.36c2.35-3.33,5-7.09,10.23-7.09s7.88,3.76,10.23,7.09c2.11,3,3.79,5.36,7.36,5.36s5.26-2.37,7.37-5.37C135,3.76,137.66,0,142.88,0,144.05,0,145,1.47,145,3.27s-.95,3.28-2.12,3.28c-3.57,0-5.25,2.37-7.37,5.37C133.17,15.24,130.51,19,125.28,19Z" fill="#2429ff"/>
</symbol><symbol id="waves" viewBox="0 0 145 59">
<style type="text/css">
	.st0{fill:#2429FF;}
</style>
<g>
	<path id="wave" class="st0" d="M125.3,19c-5.2,0-7.9-3.8-10.2-7.1c-2.1-3-3.8-5.4-7.4-5.4c-3.6,0-5.3,2.4-7.4,5.4
		c-2.3,3.3-5,7.1-10.2,7.1c-5.2,0-7.9-3.8-10.2-7.1c-2.1-3-3.8-5.4-7.4-5.4c-3.6,0-5.2,2.4-7.4,5.4c-2.3,3.3-5,7.1-10.2,7.1
		c-5.2,0-7.9-3.8-10.2-7.1c-2.1-3-3.8-5.4-7.4-5.4c-3.6,0-5.2,2.4-7.4,5.4c-2.3,3.3-5,7.1-10.2,7.1c-5.2,0-7.9-3.8-10.2-7.1
		c-2.1-3-3.8-5.4-7.4-5.4C0.9,6.5,0,5.1,0,3.3C0,1.5,0.9,0,2.1,0C7.3,0,10,3.8,12.3,7.1c2.1,3,3.8,5.4,7.4,5.4
		c3.6,0,5.2-2.4,7.4-5.4c2.3-3.3,5-7.1,10.2-7.1c5.2,0,7.9,3.8,10.2,7.1c2.1,3,3.8,5.4,7.4,5.4c3.6,0,5.2-2.4,7.4-5.4
		c2.3-3.3,5-7.1,10.2-7.1c5.2,0,7.9,3.8,10.2,7.1c2.1,3,3.8,5.4,7.4,5.4c3.6,0,5.3-2.4,7.4-5.4c2.3-3.3,5-7.1,10.2-7.1
		s7.9,3.8,10.2,7.1c2.1,3,3.8,5.4,7.4,5.4c3.6,0,5.3-2.4,7.4-5.4c2.3-3.3,5-7.1,10.2-7.1c1.2,0,2.1,1.5,2.1,3.3
		c0,1.8-0.9,3.3-2.1,3.3c-3.6,0-5.3,2.4-7.4,5.4C133.2,15.2,130.5,19,125.3,19z"/>
</g>
<g>
	<path id="wave_1_" class="st0" d="M125.3,39c-5.2,0-7.9-3.8-10.2-7.1c-2.1-3-3.8-5.4-7.4-5.4c-3.6,0-5.3,2.4-7.4,5.4
		c-2.3,3.3-5,7.1-10.2,7.1c-5.2,0-7.9-3.8-10.2-7.1c-2.1-3-3.8-5.4-7.4-5.4c-3.6,0-5.2,2.4-7.4,5.4c-2.3,3.3-5,7.1-10.2,7.1
		c-5.2,0-7.9-3.8-10.2-7.1c-2.1-3-3.8-5.4-7.4-5.4c-3.6,0-5.2,2.4-7.4,5.4c-2.3,3.3-5,7.1-10.2,7.1c-5.2,0-7.9-3.8-10.2-7.1
		c-2.1-3-3.8-5.4-7.4-5.4c-1.2,0-2.1-1.5-2.1-3.3C0,21.5,0.9,20,2.1,20c5.2,0,7.9,3.8,10.2,7.1c2.1,3,3.8,5.4,7.4,5.4
		c3.6,0,5.2-2.4,7.4-5.4c2.3-3.3,5-7.1,10.2-7.1c5.2,0,7.9,3.8,10.2,7.1c2.1,3,3.8,5.4,7.4,5.4c3.6,0,5.2-2.4,7.4-5.4
		c2.3-3.3,5-7.1,10.2-7.1c5.2,0,7.9,3.8,10.2,7.1c2.1,3,3.8,5.4,7.4,5.4c3.6,0,5.3-2.4,7.4-5.4c2.3-3.3,5-7.1,10.2-7.1
		s7.9,3.8,10.2,7.1c2.1,3,3.8,5.4,7.4,5.4c3.6,0,5.3-2.4,7.4-5.4c2.3-3.3,5-7.1,10.2-7.1c1.2,0,2.1,1.5,2.1,3.3
		c0,1.8-0.9,3.3-2.1,3.3c-3.6,0-5.3,2.4-7.4,5.4C133.2,35.2,130.5,39,125.3,39z"/>
</g>
<g>
	<path id="wave_2_" class="st0" d="M125.3,59c-5.2,0-7.9-3.8-10.2-7.1c-2.1-3-3.8-5.4-7.4-5.4c-3.6,0-5.3,2.4-7.4,5.4
		c-2.3,3.3-5,7.1-10.2,7.1c-5.2,0-7.9-3.8-10.2-7.1c-2.1-3-3.8-5.4-7.4-5.4c-3.6,0-5.2,2.4-7.4,5.4c-2.3,3.3-5,7.1-10.2,7.1
		c-5.2,0-7.9-3.8-10.2-7.1c-2.1-3-3.8-5.4-7.4-5.4c-3.6,0-5.2,2.4-7.4,5.4c-2.3,3.3-5,7.1-10.2,7.1c-5.2,0-7.9-3.8-10.2-7.1
		c-2.1-3-3.8-5.4-7.4-5.4c-1.2,0-2.1-1.5-2.1-3.3C0,41.5,0.9,40,2.1,40c5.2,0,7.9,3.8,10.2,7.1c2.1,3,3.8,5.4,7.4,5.4
		c3.6,0,5.2-2.4,7.4-5.4c2.3-3.3,5-7.1,10.2-7.1c5.2,0,7.9,3.8,10.2,7.1c2.1,3,3.8,5.4,7.4,5.4c3.6,0,5.2-2.4,7.4-5.4
		c2.3-3.3,5-7.1,10.2-7.1c5.2,0,7.9,3.8,10.2,7.1c2.1,3,3.8,5.4,7.4,5.4c3.6,0,5.3-2.4,7.4-5.4c2.3-3.3,5-7.1,10.2-7.1
		s7.9,3.8,10.2,7.1c2.1,3,3.8,5.4,7.4,5.4c3.6,0,5.3-2.4,7.4-5.4c2.3-3.3,5-7.1,10.2-7.1c1.2,0,2.1,1.5,2.1,3.3
		c0,1.8-0.9,3.3-2.1,3.3c-3.6,0-5.3,2.4-7.4,5.4C133.2,55.2,130.5,59,125.3,59z"/>
</g>
</symbol></svg>