<svg xmlns="http://www.w3.org/2000/svg" xmlns:xlink="http://www.w3.org/1999/xlink"><symbol id="arrow-right" viewBox="0 0 330 330">
  <path d="M15,180h263.787l-49.394,49.394c-5.858,5.857-5.858,15.355,0,21.213C232.322,253.535,236.161,255,240,255
    s7.678-1.465,10.606-4.394l75-75c5.858-5.857,5.858-15.355,0-21.213l-75-75c-5.857-5.857-15.355-5.857-21.213,0
    c-5.858,5.857-5.858,15.355,0,21.213L278.787,150H15c-8.284,0-15,6.716-15,15S6.716,180,15,180z"/>
</symbol><symbol id="circle" viewBox="0 0 85 85">
  <path d="M326.5,361A42.5,42.5,0,1,1,284,403.5,42.5,42.5,0,0,1,326.5,361Zm0,15A27.5,27.5,0,1,1,299,403.5,27.5,27.5,0,0,1,326.5,376Z" fill-rule="evenodd" transform="translate(-284 -361)"/>
</symbol><symbol id="logo-instagram" viewBox="0 0 28 28">
  <g>
    <path d="M26.42,6H13.58A7.59,7.59,0,0,0,6,13.58V26.42A7.59,7.59,0,0,0,13.58,34H26.42A7.59,7.59,0,0,0,34,26.42V13.58A7.59,7.59,0,0,0,26.42,6Zm5.94,20.42a6,6,0,0,1-5.94,5.94H13.58a6,6,0,0,1-5.94-5.94V13.58a5.94,5.94,0,0,1,5.94-5.94H26.42a6,6,0,0,1,5.94,5.94Z" transform="translate(-6 -6)"/>
    <path d="M20,12.34A7.66,7.66,0,1,0,27.66,20,7.67,7.67,0,0,0,20,12.34ZM20,26a6,6,0,1,1,6-6A6,6,0,0,1,20,26Z" transform="translate(-6 -6)"/>
    <path d="M27.84,9.62a2.27,2.27,0,1,0,2.26,2.27A2.27,2.27,0,0,0,27.84,9.62Zm0,2.89a.62.62,0,0,1-.62-.62.62.62,0,1,1,1.24,0A.62.62,0,0,1,27.84,12.51Z" transform="translate(-6 -6)"/>
  </g>
</symbol><symbol id="logo-odnoklassniki" viewBox="0 0 19.82 33">
  <g>
    <path d="M18.38,26.74a12.7,12.7,0,0,1-6.84-2.44,8.19,8.19,0,0,1-.73-.59A1.94,1.94,0,0,1,10.55,21a2,2,0,0,1,2.59-.58,4.56,4.56,0,0,1,.56.33,11.22,11.22,0,0,0,12.43.12,3.5,3.5,0,0,1,1.21-.63,1.9,1.9,0,0,1,2.18.87,1.86,1.86,0,0,1-.13,2.43,10.11,10.11,0,0,1-3.62,2.33,17.07,17.07,0,0,1-4.1.92l.44.48c1.9,1.91,3.81,3.81,5.7,5.72a1.89,1.89,0,0,1,.43,2.22,2.25,2.25,0,0,1-2.11,1.32,2.12,2.12,0,0,1-1.34-.68c-1.43-1.45-2.89-2.86-4.3-4.33-.41-.43-.6-.35-1,0-1.45,1.49-2.91,2.95-4.39,4.4a1.83,1.83,0,0,1-2.22.4,2.26,2.26,0,0,1-1.29-2.07,2,2,0,0,1,.69-1.38L18,27.2Z" transform="translate(-10.09 -3.5)"/>
    <path d="M19.93,20.2A8.35,8.35,0,1,1,28.34,12,8.36,8.36,0,0,1,19.93,20.2Zm4.15-8.36A4.09,4.09,0,1,0,20,15.94,4.06,4.06,0,0,0,24.08,11.84Z" transform="translate(-10.09 -3.5)"/>
  </g>
</symbol><symbol id="logo-vk" viewBox="0 0 40 23.33">
  <path d="M33.18,21.71c-.64-.81-.46-1.18,0-1.91,0,0,5.35-7.38,5.9-9.88h0c.28-.91,0-1.58-1.32-1.58H33.39a1.88,1.88,0,0,0-1.9,1.22,35.92,35.92,0,0,1-5.38,8.79c-1,1-1.49,1.31-2,1.31-.27,0-.7-.32-.7-1.23V9.91c0-1.09-.31-1.58-1.23-1.58H15.26a1,1,0,0,0-1.11,1c0,1,1.57,1.27,1.74,4.19v6.33c0,1.39-.26,1.64-.81,1.64-1.49,0-5.1-5.35-7.24-11.48-.43-1.19-.85-1.67-2-1.67H1.49C.24,8.33,0,8.91,0,9.55c0,1.14,1.49,6.79,6.91,14.26,3.62,5.1,8.72,7.86,13.35,7.86,2.78,0,3.12-.62,3.12-1.67,0-4.87-.25-5.33,1.15-5.33.64,0,1.76.32,4.36,2.78,3,2.91,3.46,4.22,5.12,4.22h4.37c1.25,0,1.88-.62,1.52-1.83C39.06,27.3,33.44,22.06,33.18,21.71Z" transform="translate(0.01 -8.33)"/>
</symbol><symbol id="logo-youtube" viewBox="0 0 27 31.99">
  <g>
    <path d="M33,20.2a3.4,3.4,0,0,0-2.92-2.65A89.48,89.48,0,0,0,20,17.17a89.83,89.83,0,0,0-10.12.38A3.4,3.4,0,0,0,7,20.2a29,29,0,0,0-.48,6.38A28.88,28.88,0,0,0,7,33a3.42,3.42,0,0,0,2.92,2.66A92.16,92.16,0,0,0,20,36a92.16,92.16,0,0,0,10.11-.37A3.42,3.42,0,0,0,33,33a28.88,28.88,0,0,0,.47-6.38A29,29,0,0,0,33,20.2ZM14.2,21.79H12.25V32.17H10.43V21.79H8.51V20.08H14.2Zm4.93,10.38H17.5v-1a2.63,2.63,0,0,1-1.87,1.1,1,1,0,0,1-1.05-.67,4.53,4.53,0,0,1-.14-1.33V23.16h1.63v6.63a3.77,3.77,0,0,0,0,.64c0,.25.16.38.38.38s.67-.25,1-.76V23.16h1.63v9Zm6.2-2.7a7.67,7.67,0,0,1-.16,1.81,1.3,1.3,0,0,1-1.31,1,2.21,2.21,0,0,1-1.68-1v.87H20.54V20.08h1.64v4a2.19,2.19,0,0,1,1.68-1,1.31,1.31,0,0,1,1.31,1,7,7,0,0,1,.16,1.81ZM31.49,28H28.23v1.6c0,.83.27,1.25.83,1.25a.71.71,0,0,0,.73-.65c0-.09,0-.46,0-1.11h1.67v.24a10.21,10.21,0,0,1,0,1.05,2.26,2.26,0,0,1-2.35,1.95,2.35,2.35,0,0,1-2-.92,3.53,3.53,0,0,1-.52-2.12V26.1A3.54,3.54,0,0,1,27.1,24a2.33,2.33,0,0,1,2-.92A2.24,2.24,0,0,1,31,24a3.47,3.47,0,0,1,.51,2.12V28Z" transform="translate(-6.5 -4.01)"/>
    <path d="M29,24.52c-.54,0-.81.42-.81,1.25v.84h1.63v-.84C29.86,24.94,29.58,24.52,29,24.52Z" transform="translate(-6.5 -4.01)"/>
    <path d="M23,24.52a1.16,1.16,0,0,0-.81.4v5.49a1.16,1.16,0,0,0,.81.4c.47,0,.71-.4.71-1.21V25.75C23.7,24.94,23.46,24.52,23,24.52Z" transform="translate(-6.5 -4.01)"/>
    <path d="M23.9,16.34a2.63,2.63,0,0,0,1.88-1.11v1h1.65V7.12H25.78v7c-.36.52-.71.78-1,.78s-.35-.14-.38-.39a3.85,3.85,0,0,1,0-.64V7.12H22.69v7.19a4.64,4.64,0,0,0,.15,1.36A1,1,0,0,0,23.9,16.34Z" transform="translate(-6.5 -4.01)"/>
    <path d="M12.42,11.27v4.95h1.83V11.27L16.45,4H14.6L13.35,8.8,12.05,4H10.13c.39,1.13.79,2.27,1.17,3.4A28.81,28.81,0,0,1,12.42,11.27Z" transform="translate(-6.5 -4.01)"/>
    <path d="M18.9,16.34a2.23,2.23,0,0,0,1.92-.93,3.51,3.51,0,0,0,.52-2.14V10.09a3.54,3.54,0,0,0-.52-2.15A2.23,2.23,0,0,0,18.9,7,2.26,2.26,0,0,0,17,7.94a3.54,3.54,0,0,0-.52,2.15v3.18A3.51,3.51,0,0,0,17,15.41,2.26,2.26,0,0,0,18.9,16.34Zm-.79-6.59c0-.84.26-1.26.79-1.26s.79.42.79,1.26v3.83c0,.84-.26,1.27-.79,1.27s-.79-.43-.79-1.27Z" transform="translate(-6.5 -4.01)"/>
  </g>
</symbol><symbol id="round" viewBox="0 0 23 23">
	<circle cx="11.5" cy="11.5" r="11.5"/>
</symbol><symbol id="wave" viewBox="0 0 145 19">
  <path d="M125.28,19c-5.22,0-7.88-3.76-10.22-7.08-2.12-3-3.8-5.37-7.37-5.37s-5.25,2.37-7.37,5.37C98,15.24,95.31,19,90.09,19s-7.88-3.76-10.23-7.08c-2.11-3-3.79-5.37-7.36-5.37s-5.25,2.37-7.37,5.37C62.78,15.24,60.12,19,54.9,19S47,15.24,44.68,11.92c-2.12-3-3.8-5.37-7.37-5.37s-5.25,2.37-7.37,5.37c-2.35,3.32-5,7.08-10.23,7.08s-7.88-3.76-10.22-7.08c-2.12-3-3.8-5.37-7.37-5.37C1,6.55,0,5.08,0,3.27S1,0,2.12,0C7.34,0,10,3.76,12.34,7.08c2.12,3,3.8,5.37,7.37,5.37S25,10.08,27.08,7.09C29.43,3.76,32.09,0,37.31,0s7.88,3.76,10.22,7.09c2.12,3,3.8,5.36,7.37,5.36s5.25-2.37,7.37-5.36C64.62,3.76,67.28,0,72.5,0s7.88,3.76,10.22,7.09c2.12,3,3.8,5.36,7.37,5.36s5.25-2.37,7.37-5.36c2.35-3.33,5-7.09,10.23-7.09s7.88,3.76,10.23,7.09c2.11,3,3.79,5.36,7.36,5.36s5.26-2.37,7.37-5.37C135,3.76,137.66,0,142.88,0,144.05,0,145,1.47,145,3.27s-.95,3.28-2.12,3.28c-3.57,0-5.25,2.37-7.37,5.37C133.17,15.24,130.51,19,125.28,19Z"/>
</symbol><symbol id="waves" viewBox="0 0 145 59">
<g>
	<path d="M125.3,19c-5.2,0-7.9-3.8-10.2-7.1c-2.1-3-3.8-5.4-7.4-5.4c-3.6,0-5.3,2.4-7.4,5.4
		c-2.3,3.3-5,7.1-10.2,7.1c-5.2,0-7.9-3.8-10.2-7.1c-2.1-3-3.8-5.4-7.4-5.4c-3.6,0-5.2,2.4-7.4,5.4c-2.3,3.3-5,7.1-10.2,7.1
		c-5.2,0-7.9-3.8-10.2-7.1c-2.1-3-3.8-5.4-7.4-5.4c-3.6,0-5.2,2.4-7.4,5.4c-2.3,3.3-5,7.1-10.2,7.1c-5.2,0-7.9-3.8-10.2-7.1
		c-2.1-3-3.8-5.4-7.4-5.4C0.9,6.5,0,5.1,0,3.3C0,1.5,0.9,0,2.1,0C7.3,0,10,3.8,12.3,7.1c2.1,3,3.8,5.4,7.4,5.4
		c3.6,0,5.2-2.4,7.4-5.4c2.3-3.3,5-7.1,10.2-7.1c5.2,0,7.9,3.8,10.2,7.1c2.1,3,3.8,5.4,7.4,5.4c3.6,0,5.2-2.4,7.4-5.4
		c2.3-3.3,5-7.1,10.2-7.1c5.2,0,7.9,3.8,10.2,7.1c2.1,3,3.8,5.4,7.4,5.4c3.6,0,5.3-2.4,7.4-5.4c2.3-3.3,5-7.1,10.2-7.1
		s7.9,3.8,10.2,7.1c2.1,3,3.8,5.4,7.4,5.4c3.6,0,5.3-2.4,7.4-5.4c2.3-3.3,5-7.1,10.2-7.1c1.2,0,2.1,1.5,2.1,3.3
		c0,1.8-0.9,3.3-2.1,3.3c-3.6,0-5.3,2.4-7.4,5.4C133.2,15.2,130.5,19,125.3,19z"/>
</g>
<g>
	<path d="M125.3,39c-5.2,0-7.9-3.8-10.2-7.1c-2.1-3-3.8-5.4-7.4-5.4c-3.6,0-5.3,2.4-7.4,5.4
		c-2.3,3.3-5,7.1-10.2,7.1c-5.2,0-7.9-3.8-10.2-7.1c-2.1-3-3.8-5.4-7.4-5.4c-3.6,0-5.2,2.4-7.4,5.4c-2.3,3.3-5,7.1-10.2,7.1
		c-5.2,0-7.9-3.8-10.2-7.1c-2.1-3-3.8-5.4-7.4-5.4c-3.6,0-5.2,2.4-7.4,5.4c-2.3,3.3-5,7.1-10.2,7.1c-5.2,0-7.9-3.8-10.2-7.1
		c-2.1-3-3.8-5.4-7.4-5.4c-1.2,0-2.1-1.5-2.1-3.3C0,21.5,0.9,20,2.1,20c5.2,0,7.9,3.8,10.2,7.1c2.1,3,3.8,5.4,7.4,5.4
		c3.6,0,5.2-2.4,7.4-5.4c2.3-3.3,5-7.1,10.2-7.1c5.2,0,7.9,3.8,10.2,7.1c2.1,3,3.8,5.4,7.4,5.4c3.6,0,5.2-2.4,7.4-5.4
		c2.3-3.3,5-7.1,10.2-7.1c5.2,0,7.9,3.8,10.2,7.1c2.1,3,3.8,5.4,7.4,5.4c3.6,0,5.3-2.4,7.4-5.4c2.3-3.3,5-7.1,10.2-7.1
		s7.9,3.8,10.2,7.1c2.1,3,3.8,5.4,7.4,5.4c3.6,0,5.3-2.4,7.4-5.4c2.3-3.3,5-7.1,10.2-7.1c1.2,0,2.1,1.5,2.1,3.3
		c0,1.8-0.9,3.3-2.1,3.3c-3.6,0-5.3,2.4-7.4,5.4C133.2,35.2,130.5,39,125.3,39z"/>
</g>
<g>
	<path d="M125.3,59c-5.2,0-7.9-3.8-10.2-7.1c-2.1-3-3.8-5.4-7.4-5.4c-3.6,0-5.3,2.4-7.4,5.4
		c-2.3,3.3-5,7.1-10.2,7.1c-5.2,0-7.9-3.8-10.2-7.1c-2.1-3-3.8-5.4-7.4-5.4c-3.6,0-5.2,2.4-7.4,5.4c-2.3,3.3-5,7.1-10.2,7.1
		c-5.2,0-7.9-3.8-10.2-7.1c-2.1-3-3.8-5.4-7.4-5.4c-3.6,0-5.2,2.4-7.4,5.4c-2.3,3.3-5,7.1-10.2,7.1c-5.2,0-7.9-3.8-10.2-7.1
		c-2.1-3-3.8-5.4-7.4-5.4c-1.2,0-2.1-1.5-2.1-3.3C0,41.5,0.9,40,2.1,40c5.2,0,7.9,3.8,10.2,7.1c2.1,3,3.8,5.4,7.4,5.4
		c3.6,0,5.2-2.4,7.4-5.4c2.3-3.3,5-7.1,10.2-7.1c5.2,0,7.9,3.8,10.2,7.1c2.1,3,3.8,5.4,7.4,5.4c3.6,0,5.2-2.4,7.4-5.4
		c2.3-3.3,5-7.1,10.2-7.1c5.2,0,7.9,3.8,10.2,7.1c2.1,3,3.8,5.4,7.4,5.4c3.6,0,5.3-2.4,7.4-5.4c2.3-3.3,5-7.1,10.2-7.1
		s7.9,3.8,10.2,7.1c2.1,3,3.8,5.4,7.4,5.4c3.6,0,5.3-2.4,7.4-5.4c2.3-3.3,5-7.1,10.2-7.1c1.2,0,2.1,1.5,2.1,3.3
		c0,1.8-0.9,3.3-2.1,3.3c-3.6,0-5.3,2.4-7.4,5.4C133.2,55.2,130.5,59,125.3,59z"/>
</g>
</symbol></svg>