<svg xmlns="http://www.w3.org/2000/svg" width="40" height="23.33" viewBox="0 0 40 23.33">
  <path d="M33.18,21.71c-.64-.81-.46-1.18,0-1.91,0,0,5.35-7.38,5.9-9.88h0c.28-.91,0-1.58-1.32-1.58H33.39a1.88,1.88,0,0,0-1.9,1.22,35.92,35.92,0,0,1-5.38,8.79c-1,1-1.49,1.31-2,1.31-.27,0-.7-.32-.7-1.23V9.91c0-1.09-.31-1.58-1.23-1.58H15.26a1,1,0,0,0-1.11,1c0,1,1.57,1.27,1.74,4.19v6.33c0,1.39-.26,1.64-.81,1.64-1.49,0-5.1-5.35-7.24-11.48-.43-1.19-.85-1.67-2-1.67H1.49C.24,8.33,0,8.91,0,9.55c0,1.14,1.49,6.79,6.91,14.26,3.62,5.1,8.72,7.86,13.35,7.86,2.78,0,3.12-.62,3.12-1.67,0-4.87-.25-5.33,1.15-5.33.64,0,1.76.32,4.36,2.78,3,2.91,3.46,4.22,5.12,4.22h4.37c1.25,0,1.88-.62,1.52-1.83C39.06,27.3,33.44,22.06,33.18,21.71Z" transform="translate(0.01 -8.33)"/>
</svg>
