<svg xmlns="http://www.w3.org/2000/svg" width="27" height="31.99" viewBox="0 0 27 31.99">
  <g>
    <path d="M33,20.2a3.4,3.4,0,0,0-2.92-2.65A89.48,89.48,0,0,0,20,17.17a89.83,89.83,0,0,0-10.12.38A3.4,3.4,0,0,0,7,20.2a29,29,0,0,0-.48,6.38A28.88,28.88,0,0,0,7,33a3.42,3.42,0,0,0,2.92,2.66A92.16,92.16,0,0,0,20,36a92.16,92.16,0,0,0,10.11-.37A3.42,3.42,0,0,0,33,33a28.88,28.88,0,0,0,.47-6.38A29,29,0,0,0,33,20.2ZM14.2,21.79H12.25V32.17H10.43V21.79H8.51V20.08H14.2Zm4.93,10.38H17.5v-1a2.63,2.63,0,0,1-1.87,1.1,1,1,0,0,1-1.05-.67,4.53,4.53,0,0,1-.14-1.33V23.16h1.63v6.63a3.77,3.77,0,0,0,0,.64c0,.25.16.38.38.38s.67-.25,1-.76V23.16h1.63v9Zm6.2-2.7a7.67,7.67,0,0,1-.16,1.81,1.3,1.3,0,0,1-1.31,1,2.21,2.21,0,0,1-1.68-1v.87H20.54V20.08h1.64v4a2.19,2.19,0,0,1,1.68-1,1.31,1.31,0,0,1,1.31,1,7,7,0,0,1,.16,1.81ZM31.49,28H28.23v1.6c0,.83.27,1.25.83,1.25a.71.71,0,0,0,.73-.65c0-.09,0-.46,0-1.11h1.67v.24a10.21,10.21,0,0,1,0,1.05,2.26,2.26,0,0,1-2.35,1.95,2.35,2.35,0,0,1-2-.92,3.53,3.53,0,0,1-.52-2.12V26.1A3.54,3.54,0,0,1,27.1,24a2.33,2.33,0,0,1,2-.92A2.24,2.24,0,0,1,31,24a3.47,3.47,0,0,1,.51,2.12V28Z" transform="translate(-6.5 -4.01)"/>
    <path d="M29,24.52c-.54,0-.81.42-.81,1.25v.84h1.63v-.84C29.86,24.94,29.58,24.52,29,24.52Z" transform="translate(-6.5 -4.01)"/>
    <path d="M23,24.52a1.16,1.16,0,0,0-.81.4v5.49a1.16,1.16,0,0,0,.81.4c.47,0,.71-.4.71-1.21V25.75C23.7,24.94,23.46,24.52,23,24.52Z" transform="translate(-6.5 -4.01)"/>
    <path d="M23.9,16.34a2.63,2.63,0,0,0,1.88-1.11v1h1.65V7.12H25.78v7c-.36.52-.71.78-1,.78s-.35-.14-.38-.39a3.85,3.85,0,0,1,0-.64V7.12H22.69v7.19a4.64,4.64,0,0,0,.15,1.36A1,1,0,0,0,23.9,16.34Z" transform="translate(-6.5 -4.01)"/>
    <path d="M12.42,11.27v4.95h1.83V11.27L16.45,4H14.6L13.35,8.8,12.05,4H10.13c.39,1.13.79,2.27,1.17,3.4A28.81,28.81,0,0,1,12.42,11.27Z" transform="translate(-6.5 -4.01)"/>
    <path d="M18.9,16.34a2.23,2.23,0,0,0,1.92-.93,3.51,3.51,0,0,0,.52-2.14V10.09a3.54,3.54,0,0,0-.52-2.15A2.23,2.23,0,0,0,18.9,7,2.26,2.26,0,0,0,17,7.94a3.54,3.54,0,0,0-.52,2.15v3.18A3.51,3.51,0,0,0,17,15.41,2.26,2.26,0,0,0,18.9,16.34Zm-.79-6.59c0-.84.26-1.26.79-1.26s.79.42.79,1.26v3.83c0,.84-.26,1.27-.79,1.27s-.79-.43-.79-1.27Z" transform="translate(-6.5 -4.01)"/>
  </g>
</svg>
