<svg xmlns="http://www.w3.org/2000/svg" width="19.82" height="33" viewBox="0 0 19.82 33">
  <g>
    <path d="M18.38,26.74a12.7,12.7,0,0,1-6.84-2.44,8.19,8.19,0,0,1-.73-.59A1.94,1.94,0,0,1,10.55,21a2,2,0,0,1,2.59-.58,4.56,4.56,0,0,1,.56.33,11.22,11.22,0,0,0,12.43.12,3.5,3.5,0,0,1,1.21-.63,1.9,1.9,0,0,1,2.18.87,1.86,1.86,0,0,1-.13,2.43,10.11,10.11,0,0,1-3.62,2.33,17.07,17.07,0,0,1-4.1.92l.44.48c1.9,1.91,3.81,3.81,5.7,5.72a1.89,1.89,0,0,1,.43,2.22,2.25,2.25,0,0,1-2.11,1.32,2.12,2.12,0,0,1-1.34-.68c-1.43-1.45-2.89-2.86-4.3-4.33-.41-.43-.6-.35-1,0-1.45,1.49-2.91,2.95-4.39,4.4a1.83,1.83,0,0,1-2.22.4,2.26,2.26,0,0,1-1.29-2.07,2,2,0,0,1,.69-1.38L18,27.2Z" transform="translate(-10.09 -3.5)"/>
    <path d="M19.93,20.2A8.35,8.35,0,1,1,28.34,12,8.36,8.36,0,0,1,19.93,20.2Zm4.15-8.36A4.09,4.09,0,1,0,20,15.94,4.06,4.06,0,0,0,24.08,11.84Z" transform="translate(-10.09 -3.5)"/>
  </g>
</svg>
