<svg xmlns="http://www.w3.org/2000/svg" width="28" height="28" viewBox="0 0 28 28">
  <g>
    <path d="M26.42,6H13.58A7.59,7.59,0,0,0,6,13.58V26.42A7.59,7.59,0,0,0,13.58,34H26.42A7.59,7.59,0,0,0,34,26.42V13.58A7.59,7.59,0,0,0,26.42,6Zm5.94,20.42a6,6,0,0,1-5.94,5.94H13.58a6,6,0,0,1-5.94-5.94V13.58a5.94,5.94,0,0,1,5.94-5.94H26.42a6,6,0,0,1,5.94,5.94Z" transform="translate(-6 -6)"/>
    <path d="M20,12.34A7.66,7.66,0,1,0,27.66,20,7.67,7.67,0,0,0,20,12.34ZM20,26a6,6,0,1,1,6-6A6,6,0,0,1,20,26Z" transform="translate(-6 -6)"/>
    <path d="M27.84,9.62a2.27,2.27,0,1,0,2.26,2.27A2.27,2.27,0,0,0,27.84,9.62Zm0,2.89a.62.62,0,0,1-.62-.62.62.62,0,1,1,1.24,0A.62.62,0,0,1,27.84,12.51Z" transform="translate(-6 -6)"/>
  </g>
</svg>
