<svg xmlns="http://www.w3.org/2000/svg" width="145" height="19" viewBox="0 0 145 19">
  <path d="M125.28,19c-5.22,0-7.88-3.76-10.22-7.08-2.12-3-3.8-5.37-7.37-5.37s-5.25,2.37-7.37,5.37C98,15.24,95.31,19,90.09,19s-7.88-3.76-10.23-7.08c-2.11-3-3.79-5.37-7.36-5.37s-5.25,2.37-7.37,5.37C62.78,15.24,60.12,19,54.9,19S47,15.24,44.68,11.92c-2.12-3-3.8-5.37-7.37-5.37s-5.25,2.37-7.37,5.37c-2.35,3.32-5,7.08-10.23,7.08s-7.88-3.76-10.22-7.08c-2.12-3-3.8-5.37-7.37-5.37C1,6.55,0,5.08,0,3.27S1,0,2.12,0C7.34,0,10,3.76,12.34,7.08c2.12,3,3.8,5.37,7.37,5.37S25,10.08,27.08,7.09C29.43,3.76,32.09,0,37.31,0s7.88,3.76,10.22,7.09c2.12,3,3.8,5.36,7.37,5.36s5.25-2.37,7.37-5.36C64.62,3.76,67.28,0,72.5,0s7.88,3.76,10.22,7.09c2.12,3,3.8,5.36,7.37,5.36s5.25-2.37,7.37-5.36c2.35-3.33,5-7.09,10.23-7.09s7.88,3.76,10.23,7.09c2.11,3,3.79,5.36,7.36,5.36s5.26-2.37,7.37-5.37C135,3.76,137.66,0,142.88,0,144.05,0,145,1.47,145,3.27s-.95,3.28-2.12,3.28c-3.57,0-5.25,2.37-7.37,5.37C133.17,15.24,130.51,19,125.28,19Z" fill="#2429ff"/>
</svg>
