<?xml version="1.0" encoding="utf-8"?>
<!-- Generator: Adobe Illustrator 24.1.2, SVG Export Plug-In . SVG Version: 6.00 Build 0)  -->
<svg version="1.1" id="Layer_1" xmlns="http://www.w3.org/2000/svg" xmlns:xlink="http://www.w3.org/1999/xlink" x="0px" y="0px"
	 viewBox="0 0 145 59" style="enable-background:new 0 0 145 59;" xml:space="preserve">
<style type="text/css">
	.st0{fill:#2429FF;}
</style>
<g>
	<path id="wave" class="st0" d="M125.3,19c-5.2,0-7.9-3.8-10.2-7.1c-2.1-3-3.8-5.4-7.4-5.4c-3.6,0-5.3,2.4-7.4,5.4
		c-2.3,3.3-5,7.1-10.2,7.1c-5.2,0-7.9-3.8-10.2-7.1c-2.1-3-3.8-5.4-7.4-5.4c-3.6,0-5.2,2.4-7.4,5.4c-2.3,3.3-5,7.1-10.2,7.1
		c-5.2,0-7.9-3.8-10.2-7.1c-2.1-3-3.8-5.4-7.4-5.4c-3.6,0-5.2,2.4-7.4,5.4c-2.3,3.3-5,7.1-10.2,7.1c-5.2,0-7.9-3.8-10.2-7.1
		c-2.1-3-3.8-5.4-7.4-5.4C0.9,6.5,0,5.1,0,3.3C0,1.5,0.9,0,2.1,0C7.3,0,10,3.8,12.3,7.1c2.1,3,3.8,5.4,7.4,5.4
		c3.6,0,5.2-2.4,7.4-5.4c2.3-3.3,5-7.1,10.2-7.1c5.2,0,7.9,3.8,10.2,7.1c2.1,3,3.8,5.4,7.4,5.4c3.6,0,5.2-2.4,7.4-5.4
		c2.3-3.3,5-7.1,10.2-7.1c5.2,0,7.9,3.8,10.2,7.1c2.1,3,3.8,5.4,7.4,5.4c3.6,0,5.3-2.4,7.4-5.4c2.3-3.3,5-7.1,10.2-7.1
		s7.9,3.8,10.2,7.1c2.1,3,3.8,5.4,7.4,5.4c3.6,0,5.3-2.4,7.4-5.4c2.3-3.3,5-7.1,10.2-7.1c1.2,0,2.1,1.5,2.1,3.3
		c0,1.8-0.9,3.3-2.1,3.3c-3.6,0-5.3,2.4-7.4,5.4C133.2,15.2,130.5,19,125.3,19z"/>
</g>
<g>
	<path id="wave_1_" class="st0" d="M125.3,39c-5.2,0-7.9-3.8-10.2-7.1c-2.1-3-3.8-5.4-7.4-5.4c-3.6,0-5.3,2.4-7.4,5.4
		c-2.3,3.3-5,7.1-10.2,7.1c-5.2,0-7.9-3.8-10.2-7.1c-2.1-3-3.8-5.4-7.4-5.4c-3.6,0-5.2,2.4-7.4,5.4c-2.3,3.3-5,7.1-10.2,7.1
		c-5.2,0-7.9-3.8-10.2-7.1c-2.1-3-3.8-5.4-7.4-5.4c-3.6,0-5.2,2.4-7.4,5.4c-2.3,3.3-5,7.1-10.2,7.1c-5.2,0-7.9-3.8-10.2-7.1
		c-2.1-3-3.8-5.4-7.4-5.4c-1.2,0-2.1-1.5-2.1-3.3C0,21.5,0.9,20,2.1,20c5.2,0,7.9,3.8,10.2,7.1c2.1,3,3.8,5.4,7.4,5.4
		c3.6,0,5.2-2.4,7.4-5.4c2.3-3.3,5-7.1,10.2-7.1c5.2,0,7.9,3.8,10.2,7.1c2.1,3,3.8,5.4,7.4,5.4c3.6,0,5.2-2.4,7.4-5.4
		c2.3-3.3,5-7.1,10.2-7.1c5.2,0,7.9,3.8,10.2,7.1c2.1,3,3.8,5.4,7.4,5.4c3.6,0,5.3-2.4,7.4-5.4c2.3-3.3,5-7.1,10.2-7.1
		s7.9,3.8,10.2,7.1c2.1,3,3.8,5.4,7.4,5.4c3.6,0,5.3-2.4,7.4-5.4c2.3-3.3,5-7.1,10.2-7.1c1.2,0,2.1,1.5,2.1,3.3
		c0,1.8-0.9,3.3-2.1,3.3c-3.6,0-5.3,2.4-7.4,5.4C133.2,35.2,130.5,39,125.3,39z"/>
</g>
<g>
	<path id="wave_2_" class="st0" d="M125.3,59c-5.2,0-7.9-3.8-10.2-7.1c-2.1-3-3.8-5.4-7.4-5.4c-3.6,0-5.3,2.4-7.4,5.4
		c-2.3,3.3-5,7.1-10.2,7.1c-5.2,0-7.9-3.8-10.2-7.1c-2.1-3-3.8-5.4-7.4-5.4c-3.6,0-5.2,2.4-7.4,5.4c-2.3,3.3-5,7.1-10.2,7.1
		c-5.2,0-7.9-3.8-10.2-7.1c-2.1-3-3.8-5.4-7.4-5.4c-3.6,0-5.2,2.4-7.4,5.4c-2.3,3.3-5,7.1-10.2,7.1c-5.2,0-7.9-3.8-10.2-7.1
		c-2.1-3-3.8-5.4-7.4-5.4c-1.2,0-2.1-1.5-2.1-3.3C0,41.5,0.9,40,2.1,40c5.2,0,7.9,3.8,10.2,7.1c2.1,3,3.8,5.4,7.4,5.4
		c3.6,0,5.2-2.4,7.4-5.4c2.3-3.3,5-7.1,10.2-7.1c5.2,0,7.9,3.8,10.2,7.1c2.1,3,3.8,5.4,7.4,5.4c3.6,0,5.2-2.4,7.4-5.4
		c2.3-3.3,5-7.1,10.2-7.1c5.2,0,7.9,3.8,10.2,7.1c2.1,3,3.8,5.4,7.4,5.4c3.6,0,5.3-2.4,7.4-5.4c2.3-3.3,5-7.1,10.2-7.1
		s7.9,3.8,10.2,7.1c2.1,3,3.8,5.4,7.4,5.4c3.6,0,5.3-2.4,7.4-5.4c2.3-3.3,5-7.1,10.2-7.1c1.2,0,2.1,1.5,2.1,3.3
		c0,1.8-0.9,3.3-2.1,3.3c-3.6,0-5.3,2.4-7.4,5.4C133.2,55.2,130.5,59,125.3,59z"/>
</g>
</svg>
